<svg width="36" height="30" viewBox="0 0 36 30" fill="none" xmlns="http://www.w3.org/2000/svg">
<path d="M34 14.8H24.4L21.2 19.6H14.8L11.6 14.8H2M34 14.8V24.4C34 25.2487 33.6629 26.0626 33.0627 26.6627C32.4626 27.2629 31.6487 27.6 30.8 27.6H5.2C4.35131 27.6 3.53737 27.2629 2.93726 26.6627C2.33714 26.0626 2 25.2487 2 24.4V14.8M34 14.8L28.48 3.776C28.2151 3.24286 27.8067 2.79419 27.3007 2.48045C26.7948 2.1667 26.2113 2.00032 25.616 2H10.384C9.78867 2.00032 9.20522 2.1667 8.69927 2.48045C8.19332 2.79419 7.78492 3.24286 7.52 3.776L2 14.8" stroke="white" stroke-width="3.2" stroke-linecap="round" stroke-linejoin="round"/>
</svg>
