<svg width="35" height="35" viewBox="0 0 35 35" fill="none" xmlns="http://www.w3.org/2000/svg">
<path fill-rule="evenodd" clip-rule="evenodd" d="M28.8036 0.0104473C28.2809 0.0284034 27.7034 0.0594189 27.3999 0.0858249C26.7749 0.140212 26.0647 0.22377 25.6116 0.296189C25.5482 0.306329 25.44 0.323613 25.3712 0.334579C25.0404 0.387353 24.4947 0.49436 23.9579 0.611737C23.6902 0.670272 22.9552 0.860876 22.7273 0.930876C22.6638 0.950349 22.547 0.985205 22.4677 1.00829C22.2698 1.06594 21.5138 1.31686 21.314 1.39124C21.2241 1.4247 21.1116 1.46533 21.064 1.48152C21.0164 1.49773 20.9515 1.52233 20.9198 1.53622C20.8881 1.55008 20.7496 1.60608 20.6121 1.66066C20.4746 1.71522 20.3362 1.77139 20.3045 1.78547C20.2727 1.79955 20.1732 1.84301 20.0833 1.88203C19.7341 2.03367 19.3091 2.23311 18.9827 2.39849C18.576 2.60454 18.2584 2.77949 17.8143 3.04194C17.661 3.13258 17.5269 3.21107 17.5163 3.21635C17.3601 3.29434 16.2091 4.08224 15.903 4.3206C15.6563 4.5128 15.2185 4.86217 15.1341 4.93417L15.0349 5.0188L14.67 5.04979C14.1631 5.09287 13.7261 5.13195 13.4879 5.15552C13.3768 5.1665 13.1389 5.18857 12.9591 5.20454C12.7793 5.22052 12.4851 5.24676 12.3053 5.26285C12.1255 5.27894 11.84 5.30441 11.6707 5.31944C11.5015 5.33448 11.2722 5.35578 11.1612 5.36676C11.0501 5.37775 10.8122 5.39981 10.6324 5.41581C10.4526 5.43181 10.1627 5.4577 9.98823 5.47335C9.81373 5.489 9.52386 5.5147 9.34407 5.53044C9.16428 5.54619 8.93065 5.56781 8.82489 5.57849C8.71913 5.58917 8.48983 5.61039 8.31533 5.62568C7.56752 5.69113 7.47872 5.70561 7.11353 5.8217C6.42447 6.04074 5.83889 6.4917 5.42192 7.12445C5.28145 7.3376 4.90753 7.91849 4.85415 8.00646C4.79988 8.09592 4.5636 8.46858 4.40275 8.71841C4.24929 8.95678 4.01175 9.33045 3.9504 9.43007C3.93453 9.45582 3.80474 9.65841 3.66196 9.88028C3.51919 10.1021 3.3894 10.3048 3.37353 10.3307C3.31021 10.434 3.07402 10.8062 2.92214 11.0421C2.76379 11.2881 2.52616 11.6621 2.46978 11.754C2.4439 11.7963 2.10324 12.3294 1.84484 12.7321C1.79064 12.8166 1.71363 12.9376 1.67375 13.001C1.63387 13.0644 1.52919 13.2286 1.44116 13.3659C1.29507 13.5937 1.06052 13.9627 0.989164 14.0769C0.973301 14.1023 0.856486 14.2853 0.729576 14.4836C0.337501 15.0964 0.260509 15.2417 0.154828 15.5685C0.0291294 15.9572 0.000940061 16.1418 3.63086e-05 16.5826C-0.000598241 16.8892 0.00693943 17.0146 0.0341097 17.1491C0.0678177 17.3161 0.147002 17.6079 0.180018 17.6869C0.288064 17.9454 0.353077 18.0813 0.431742 18.2134C0.852159 18.9194 1.52065 19.443 2.28711 19.6666C2.48553 19.7245 2.54769 19.7372 2.78705 19.7689C2.88224 19.7814 3.02068 19.8002 3.09471 19.8104C3.16875 19.8207 3.31585 19.8374 3.4216 19.8474C3.72769 19.8763 4.15905 19.9231 4.31574 19.9444C4.39506 19.9552 4.5811 19.9763 4.72916 19.9913C4.87722 20.0064 5.11518 20.0323 5.25795 20.0489C5.40073 20.0655 5.60407 20.0871 5.70983 20.0968C5.91488 20.1156 6.16934 20.1457 6.37322 20.1753C6.44196 20.1853 6.58906 20.2018 6.70011 20.212C6.81116 20.2221 7.01883 20.2433 7.1616 20.259C7.30437 20.2748 7.50339 20.2965 7.60386 20.3074C7.81494 20.3303 8.0707 20.3592 8.21091 20.376L8.30842 20.3877L11.4643 23.5407L14.6202 26.6937L14.6419 26.8858C14.6538 26.9914 14.6759 27.1923 14.691 27.3323C14.7061 27.4722 14.7317 27.7056 14.7478 27.8508C14.7639 27.996 14.7895 28.2315 14.8046 28.3741C14.8197 28.5167 14.8413 28.7068 14.8526 28.7966C14.8639 28.8864 14.8861 29.0808 14.9021 29.2287C14.918 29.3766 14.944 29.6142 14.9598 29.7568C14.9757 29.8994 15.0011 30.1327 15.0163 30.2753C15.0316 30.4179 15.0533 30.6124 15.0646 30.7074C15.0921 30.9373 15.1359 31.3343 15.1601 31.5716C15.1787 31.7545 15.1915 31.8588 15.2396 32.2198C15.3319 32.9129 15.6252 33.5141 16.1211 34.0272C16.4203 34.3369 16.8292 34.6143 17.1894 34.7521C17.2529 34.7764 17.3138 34.8027 17.3248 34.8105C17.3358 34.8184 17.379 34.8333 17.4209 34.8437C17.4628 34.8541 17.5836 34.8842 17.6894 34.9106C18.4103 35.0904 19.198 34.9967 19.8814 34.6498C20.0247 34.577 20.1565 34.498 20.4679 34.2982C20.5367 34.2541 20.6578 34.1764 20.7371 34.1255C20.8164 34.0746 20.8986 34.0235 20.9198 34.0119C20.9409 34.0002 21.0188 33.951 21.0928 33.9025C21.1669 33.8539 21.327 33.7513 21.4486 33.6743C21.5702 33.5975 21.7458 33.4861 21.8387 33.4269C21.9317 33.3677 22.0571 33.2881 22.1175 33.25C22.1779 33.2119 22.3095 33.1279 22.41 33.0634C22.6808 32.8893 23.0461 32.657 23.2816 32.509C23.3961 32.4371 23.5239 32.3566 23.5655 32.3302C24.0212 32.0411 24.1699 31.9461 24.2845 31.871C24.3583 31.8225 24.4343 31.7742 24.4535 31.7637C24.4726 31.7531 24.6912 31.6148 24.9393 31.4564C25.4909 31.1041 25.7243 30.9557 26.1163 30.7082C26.2829 30.6031 26.5144 30.4556 26.6307 30.3806C26.7471 30.3055 26.9504 30.1766 27.0826 30.0939C27.2148 30.0113 27.3446 29.9292 27.371 29.9114C27.3975 29.8936 27.5403 29.8025 27.6883 29.7088C28.0538 29.4777 28.2077 29.3601 28.4181 29.1513C28.8528 28.72 29.131 28.2217 29.281 27.6059C29.3295 27.4071 29.3465 27.2699 29.4006 26.6457C29.4157 26.4714 29.4368 26.2424 29.4476 26.1368C29.4787 25.8331 29.5294 25.2835 29.5647 24.8693C29.5755 24.7426 29.5976 24.4963 29.6137 24.322C29.6457 23.9769 29.6604 23.8146 29.7061 23.3041C29.7226 23.1193 29.7491 22.8255 29.7649 22.6512C29.7807 22.4769 29.8074 22.1788 29.8243 21.9886C29.8412 21.7985 29.8626 21.5738 29.8719 21.4893C29.8811 21.4048 29.8973 21.219 29.9079 21.0764C29.9184 20.9338 29.9321 20.7783 29.9383 20.7308C29.9483 20.6549 29.9914 20.2115 30.0186 19.905C30.0252 19.8314 30.0412 19.7848 30.0717 19.7513C30.1627 19.6512 30.4642 19.2689 30.6928 18.964C30.8234 18.7897 30.9428 18.6319 30.9581 18.6133C30.9735 18.5947 30.9861 18.5752 30.9861 18.5701C30.9861 18.562 31.1306 18.356 31.1745 18.3014C31.2336 18.228 31.8112 17.3295 31.8829 17.1994C31.9026 17.1637 31.9273 17.1204 31.9379 17.1032C32.0192 16.9706 32.4124 16.2671 32.4757 16.1409C32.9344 15.2261 33.1255 14.8081 33.3797 14.1629C33.4193 14.0625 33.4626 13.9545 33.4759 13.9228C33.5354 13.7816 33.6933 13.3321 33.8164 12.953C33.8901 12.7259 33.9576 12.5228 33.9664 12.5017C33.9835 12.4606 34.0606 12.1901 34.1224 11.9544C34.1432 11.8751 34.1725 11.7714 34.1875 11.7239C34.2219 11.6153 34.329 11.195 34.3613 11.0421C34.3746 10.9788 34.3999 10.8664 34.4175 10.7925C34.435 10.7185 34.4615 10.5932 34.4763 10.514C34.4911 10.4348 34.5171 10.3095 34.534 10.2356C34.5509 10.1616 34.5726 10.0536 34.5822 9.9955C34.6298 9.7065 34.6587 9.54581 34.6686 9.51478C34.6746 9.49594 34.6873 9.41707 34.697 9.33952C34.7066 9.26197 34.7236 9.14235 34.7347 9.07369C34.7857 8.75726 34.817 8.52341 34.8439 8.25751C34.8599 8.09907 34.8806 7.9003 34.8898 7.8158C34.9062 7.66432 34.9267 7.41126 34.9668 6.86519C34.9997 6.41594 35.0114 5.02957 34.987 4.47424C34.9452 3.5246 34.9273 3.2939 34.8581 2.81306C34.7764 2.24593 34.4548 1.58054 34.065 1.17262C33.96 1.06277 33.7248 0.840346 33.6674 0.796598C33.2894 0.508801 32.7682 0.268266 32.3524 0.189759C32.2007 0.161125 31.8249 0.117973 31.4475 0.0859017C31.3259 0.0755505 31.1918 0.0627602 31.1495 0.057479C31.0671 0.0471662 30.1738 0.0146146 29.6208 0.00174768C29.4357 -0.0025541 29.068 0.00136365 28.8036 0.0104473ZM30.4284 3.88914C31.1003 3.91422 31.0745 3.90953 31.0907 4.00984C31.1132 4.14863 31.1386 4.89543 31.1386 5.41526C31.1385 6.13064 31.0896 7.08225 31.025 7.62376C30.913 8.56318 30.8613 8.89561 30.7173 9.60181C30.4837 10.7475 30.0567 12.1453 29.6791 13.001C29.6697 13.0221 29.6041 13.1734 29.5333 13.3371C29.3165 13.8381 28.7843 14.8779 28.6374 15.0876C28.6178 15.1157 28.6017 15.1433 28.6017 15.1489C28.6017 15.1814 28.0189 16.0772 27.8314 16.333C27.6888 16.5275 27.4111 16.8937 27.334 16.9889C27.2856 17.0486 27.2028 17.1518 27.1499 17.2181C27.097 17.2845 26.9888 17.4128 26.9094 17.5032C26.83 17.5936 26.7358 17.7022 26.7 17.7445C26.4476 18.0425 25.6224 18.86 25.2462 19.1848C25.1728 19.2482 25.0779 19.3305 25.0353 19.3678C24.8119 19.5631 24.4431 19.8577 24.1406 20.0824C24.0719 20.1335 24.0026 20.1858 23.9868 20.1986C23.7761 20.3689 22.9298 20.9328 22.4433 21.2271C22.2659 21.3344 22.1158 21.4221 22.1097 21.4221C22.1036 21.4221 22.0757 21.4382 22.0476 21.4578C21.9948 21.4947 21.8949 21.5507 21.6313 21.6908C21.5466 21.7358 21.4688 21.7793 21.4582 21.7875C21.4263 21.8121 20.6833 22.1853 20.4829 22.2774C20.3801 22.3246 20.233 22.3926 20.156 22.4285C19.9395 22.5295 19.4891 22.728 19.4767 22.728C19.4706 22.728 19.4183 22.7496 19.3606 22.776C19.3028 22.8024 19.0503 22.9026 18.7994 22.9987C18.5484 23.0948 18.3258 23.1806 18.3047 23.1895C18.2656 23.2058 18.0948 23.2663 17.747 23.3869C17.6413 23.4235 17.4552 23.4856 17.3336 23.5247C17.212 23.5638 17.0914 23.6042 17.0657 23.6144C17.0216 23.6319 16.8491 23.4635 14.1958 20.8136C12.6431 19.2629 11.3727 17.9855 11.3727 17.9749C11.3726 17.943 11.6195 17.1813 11.7243 16.8899C11.73 16.874 11.7711 16.7574 11.8156 16.6306C11.9021 16.3843 12.1771 15.6673 12.2257 15.5614C12.2418 15.5263 12.2984 15.3927 12.3514 15.2645C12.5747 14.7252 13.0069 13.8196 13.2703 13.339C13.7423 12.4775 14.095 11.9103 14.6746 11.0802C14.8411 10.8419 15.3647 10.1714 15.5448 9.96612C15.5821 9.92354 15.6559 9.83776 15.7088 9.77548C16.0268 9.40097 16.7048 8.70408 17.0841 8.362C17.9021 7.62414 18.605 7.0941 19.5257 6.52068C19.8197 6.33762 19.8847 6.29898 20.1122 6.1726C20.759 5.81317 21.5325 5.44681 22.1889 5.18895C23.3882 4.71781 24.808 4.33038 26.0346 4.13951C26.1721 4.11811 26.3409 4.09186 26.4096 4.08115C27.0779 3.97704 27.8983 3.9066 28.8613 3.87066C29.3168 3.85365 29.5526 3.85643 30.4284 3.88914ZM23.2465 8.75709C22.9874 8.81205 22.843 8.85816 22.6477 8.94827C22.1283 9.18796 21.6725 9.63325 21.4291 10.1388C21.2714 10.4663 21.2111 10.6836 21.1789 11.0396C21.1192 11.699 21.2927 12.3164 21.6827 12.8328C22.2135 13.5354 23.1 13.9269 23.9648 13.8406C25.1202 13.7252 26.0188 12.9252 26.256 11.8007C26.2683 11.7426 26.2862 11.6638 26.2959 11.6256C26.319 11.5344 26.3186 11.0039 26.2954 10.9283C26.2854 10.8958 26.2672 10.8175 26.2549 10.7541C26.1435 10.1811 25.781 9.60087 25.3136 9.24753C24.8281 8.88057 24.3144 8.70785 23.7176 8.71088C23.5227 8.71188 23.4053 8.72338 23.2465 8.75709ZM11.0702 9.49928C10.9762 9.64016 10.8565 9.82312 10.8043 9.90584C10.7521 9.98853 10.6944 10.0793 10.6762 10.1075C10.658 10.1357 10.6234 10.1923 10.5993 10.2334C10.5752 10.2744 10.5468 10.3219 10.5363 10.339C10.0222 11.1678 9.41223 12.3429 8.9394 13.4152C8.81612 13.6948 8.69031 13.9945 8.53288 14.3837C8.47004 14.5391 8.21884 15.1975 8.19949 15.2575C8.19098 15.2839 8.13083 15.4568 8.06581 15.6416C7.97036 15.913 7.86955 16.215 7.80375 16.4265C7.7979 16.4453 7.77779 16.4493 7.73337 16.4403C7.69916 16.4334 7.5457 16.4146 7.39235 16.3986C7.00942 16.3584 6.64681 16.3188 6.44052 16.2944C6.25991 16.273 5.96078 16.2397 5.4887 16.1884C5.33535 16.1718 5.09739 16.1458 4.95991 16.1308C4.82242 16.1158 4.62361 16.0941 4.51811 16.0827C4.4126 16.0712 4.32426 16.0598 4.32176 16.0573C4.31541 16.051 4.47448 15.798 5.13297 14.7672C5.2916 14.5189 5.43438 14.2943 5.45024 14.2681C5.47653 14.2247 5.85964 13.6241 6.0944 13.2583C6.14728 13.1759 6.22203 13.0583 6.2605 12.9971C6.33055 12.8856 6.80846 12.1361 6.91316 11.9736C6.94378 11.926 7.09657 11.6863 7.25269 11.4409C7.40882 11.1954 7.69191 10.7504 7.8818 10.4518C8.07168 10.1533 8.28577 9.8185 8.35759 9.70778C8.42941 9.59705 8.49037 9.50051 8.49308 9.49323C8.49579 9.48597 8.61914 9.47049 8.7672 9.45886C9.08244 9.43408 9.59029 9.38876 9.86324 9.36105C9.969 9.35031 10.1594 9.33272 10.2863 9.32197C10.4132 9.31121 10.6079 9.29339 10.7189 9.28237C11.0164 9.25285 11.2276 9.23526 11.2348 9.23943C11.2382 9.24144 11.1642 9.35838 11.0702 9.49928ZM6.58795 22.5383C6.42031 22.5661 6.13377 22.6693 5.97797 22.758C5.49097 23.0352 5.16023 23.4799 5.03473 24.0262C4.98219 24.2549 4.98706 24.6788 5.04486 24.9077C5.09585 25.1097 5.22188 25.388 5.33371 25.5456C5.42692 25.6769 9.2599 29.517 9.40527 29.6247C9.52643 29.7144 9.71118 29.8167 9.85363 29.8728C10.2769 30.0394 10.8342 30.0394 11.2573 29.8727C11.3771 29.8256 11.6236 29.6943 11.6843 29.6453C12.0682 29.3358 12.2837 29.0283 12.416 28.6009C12.4748 28.411 12.4772 28.3896 12.477 28.0764C12.4767 27.7742 12.4727 27.7364 12.4223 27.5675C12.3923 27.4672 12.3443 27.3332 12.3156 27.2699C12.1771 26.9642 12.1787 26.9659 10.1059 24.8958C8.09489 22.8873 8.05653 22.8513 7.77861 22.7097C7.66572 22.6522 7.37379 22.5592 7.23561 22.5368C7.09109 22.5134 6.73288 22.5142 6.58795 22.5383ZM25.7755 23.8718C25.7657 23.9768 25.7483 24.1578 25.7369 24.274C25.7254 24.3902 25.703 24.6321 25.687 24.8117C25.671 24.9913 25.6459 25.2721 25.6312 25.4358C25.6166 25.5996 25.5907 25.8968 25.5738 26.0964C25.5569 26.296 25.536 26.4718 25.5274 26.4872C25.5188 26.5025 25.441 26.5596 25.3546 26.614C25.0831 26.7848 24.3301 27.2626 24.1695 27.366C24.0848 27.4204 23.7863 27.6103 23.5061 27.7879C23.2258 27.9655 22.9403 28.147 22.8715 28.1911C22.5914 28.371 21.965 28.7697 21.9201 28.7966C21.8643 28.8301 21.0534 29.3448 20.8771 29.4587C20.8112 29.5012 20.6944 29.5759 20.6175 29.6246C20.5405 29.6733 20.2894 29.8332 20.0594 29.9799C19.8294 30.1265 19.6217 30.2575 19.5979 30.2709C19.574 30.2843 19.4207 30.3812 19.2572 30.4861C19.0937 30.591 18.9575 30.6745 18.9546 30.6716C18.9516 30.6686 18.9402 30.5848 18.9291 30.4852C18.8457 29.7359 18.823 29.5256 18.7573 28.8926C18.7359 28.6867 18.7139 28.4989 18.7084 28.4755C18.6968 28.4259 18.6483 27.9792 18.6213 27.6731C18.6111 27.557 18.594 27.4149 18.5835 27.3575C18.5543 27.1994 18.5571 27.1873 18.6268 27.167C18.6823 27.1507 19.1428 26.9908 19.5449 26.848C19.8388 26.7437 20.7203 26.3982 20.9653 26.2913C21.0249 26.2653 21.1645 26.2058 21.2755 26.1589C21.4675 26.0779 21.7699 25.941 22.1504 25.7628C22.5234 25.5881 23.2133 25.2355 23.5541 25.0455C23.6493 24.9924 23.7661 24.9281 23.8137 24.9025C23.8613 24.8769 23.9089 24.8493 23.9195 24.8412C23.9301 24.8331 23.9776 24.8049 24.0252 24.7785C24.2329 24.6633 24.6543 24.411 24.9194 24.243C24.9511 24.2229 25.1584 24.0859 25.3801 23.9385C25.6017 23.7912 25.7854 23.673 25.7882 23.6758C25.791 23.6786 25.7853 23.7668 25.7755 23.8718Z" fill="white"/>
</svg>
