<svg width="40" height="40" viewBox="0 0 40 40" fill="none" xmlns="http://www.w3.org/2000/svg">
<path d="M29.651 10.2051C24.917 5.54058 17.6354 5.01771 12.3254 8.59083L12.3105 6.53958C12.308 6.19433 12.026 5.91646 11.6806 5.91921L10.4307 5.92896C10.0856 5.93158 9.80811 6.21346 9.81061 6.55846L9.84511 11.2366C9.84999 11.9238 10.4091 12.4768 11.0951 12.4768C11.0976 12.4768 11.1012 12.4768 11.1049 12.4768L15.7836 12.4423C16.1289 12.4398 16.4066 12.1577 16.404 11.8125L16.3942 10.5623C16.3916 10.2172 16.1097 9.93971 15.7647 9.94221L14.9695 9.94796C19.1542 7.85896 24.3826 8.52408 27.8957 11.9848C31.2672 15.3083 32.1885 20.3046 30.2726 24.5887C30.1362 24.8937 30.248 25.2491 30.5455 25.4012L31.6611 25.9712C31.9772 26.1327 32.377 26.0026 32.5237 25.6795C34.907 20.4291 33.79 14.2852 29.651 10.2051ZM28.9051 27.5232C28.9026 27.5232 28.899 27.5232 28.8954 27.5232L24.2166 27.5576C23.8714 27.5602 23.5936 27.8422 23.5962 28.1875L23.606 29.4376C23.6086 29.7826 23.8905 30.0601 24.2355 30.0577L25.03 30.052C20.845 32.1405 15.6175 31.4747 12.1045 28.0151C8.73299 24.6916 7.81174 19.6952 9.72761 15.4112C9.86399 15.1062 9.75224 14.7508 9.45474 14.5987L8.33911 14.0287C8.02299 13.8672 7.62324 13.9973 7.47649 14.3205C5.09299 19.5707 6.21011 25.7146 10.349 29.7948C13.0235 32.4303 16.5124 33.7438 19.9986 33.7438C22.683 33.7438 25.3647 32.9623 27.6745 31.4076L27.6894 33.4602C27.6919 33.8055 27.9739 34.0833 28.3192 34.0807L29.5691 34.071C29.9142 34.0682 30.1917 33.7863 30.1892 33.4413L30.1547 28.7633C30.1502 28.0761 29.5912 27.5232 28.9051 27.5232Z" fill="#31353B"/>
</svg>
