<svg width="30" height="30" viewBox="0 0 30 30" fill="none" xmlns="http://www.w3.org/2000/svg">
<path d="M22.004 0.000488281C27.1055 0.000488281 29.9855 2.89399 30.0005 7.99549V22.0055C30.0005 27.1055 27.1055 30.0005 22.004 30.0005H7.99549C2.89399 30.0005 0.000488281 27.1055 0.000488281 22.0055V7.99549C0.000488281 2.89399 2.89399 0.000488281 7.99549 0.000488281H22.004ZM15.7505 6.19549C15.329 5.94049 14.819 5.94049 14.4155 6.19549C14.009 6.44899 13.7855 6.91549 13.829 7.38049V22.6655C13.9055 23.3105 14.444 23.7905 15.074 23.7905C15.7205 23.7905 16.259 23.3105 16.319 22.6655V7.38049C16.379 6.91549 16.1555 6.44899 15.7505 6.19549ZM8.74549 11.1155C8.34049 10.8605 7.82899 10.8605 7.42549 11.1155C7.01899 11.3705 6.79549 11.834 6.84049 12.3005V22.6655C6.89899 23.3105 7.43899 23.7905 8.08399 23.7905C8.73049 23.7905 9.26899 23.3105 9.32899 22.6655V12.3005C9.37549 11.834 9.14899 11.3705 8.74549 11.1155ZM22.634 16.5605C22.2305 16.3055 21.7205 16.3055 21.3005 16.5605C20.894 16.8155 20.6705 17.264 20.7305 17.7455V22.6655C20.7905 23.3105 21.329 23.7905 21.9755 23.7905C22.6055 23.7905 23.144 23.3105 23.2205 22.6655V17.7455C23.264 17.264 23.0405 16.8155 22.634 16.5605Z" fill="#31353B"/>
</svg>
