<svg width="34" height="19" viewBox="0 0 34 19" fill="none" xmlns="http://www.w3.org/2000/svg">
<path fill-rule="evenodd" clip-rule="evenodd" d="M0 9.19971C0 4.22914 4.06421 0.199707 9.07767 0.199707H24.9223C29.9358 0.199707 34 4.22914 34 9.19971C34 14.1703 29.9358 18.1997 24.9223 18.1997H9.07767C4.06421 18.1997 0 14.1703 0 9.19971ZM7.26214 6.74516C7.26214 6.02217 7.85329 5.43607 8.58252 5.43607C9.31175 5.43607 9.90291 6.02217 9.90291 6.74516V8.05425H11.2233C11.9525 8.05425 12.5437 8.64035 12.5437 9.36334C12.5437 10.0863 11.9525 10.6724 11.2233 10.6724H9.90291V11.9815C9.90291 12.7045 9.31175 13.2906 8.58252 13.2906C7.85329 13.2906 7.26214 12.7045 7.26214 11.9815V10.6724H5.94175C5.21252 10.6724 4.62136 10.0863 4.62136 9.36334C4.62136 8.64035 5.21252 8.05425 5.94175 8.05425H7.26214V6.74516ZM23.701 7.20334C23.701 8.17938 22.9029 8.97062 21.9184 8.97062C20.934 8.97062 20.1359 8.17938 20.1359 7.20334C20.1359 6.2273 20.934 5.43607 21.9184 5.43607C22.9029 5.43607 23.701 6.2273 23.701 7.20334ZM26.8699 13.2252C27.8544 13.2252 28.6524 12.4339 28.6524 11.4579C28.6524 10.4819 27.8544 9.69062 26.8699 9.69062C25.8854 9.69062 25.0874 10.4819 25.0874 11.4579C25.0874 12.4339 25.8854 13.2252 26.8699 13.2252Z" fill="white"/>
<defs>
<linearGradient id="paint0_linear_2004_1935" x1="1.14453e-07" y1="9.31363" x2="34" y2="9.31363" gradientUnits="userSpaceOnUse">
<stop stop-color="#9945FF"/>
<stop offset="1" stop-color="#14F195"/>
</linearGradient>
</defs>
</svg>
