<svg width="64" height="64" viewBox="0 0 64 64" fill="none" xmlns="http://www.w3.org/2000/svg">
<rect width="64" height="64" rx="32" fill="url(#paint0_linear_2004_1944)"/>
<rect x="0.5" y="0.5" width="63" height="63" rx="31.5" stroke="url(#paint1_linear_2004_1944)" stroke-opacity="0.15"/>
<path d="M30.9661 19.1616C31.6385 18.9461 32.3615 18.9461 33.0339 19.1616C33.4943 19.309 33.8632 19.5627 34.1889 19.8338C34.4938 20.0876 34.8337 20.4205 35.215 20.7941L35.6431 21.2134C36.0406 21.6028 36.0979 21.6477 36.1459 21.6769C36.2148 21.7187 36.2897 21.7497 36.368 21.7689C36.4225 21.7822 36.4948 21.7909 37.0512 21.7967L37.6505 21.8029C38.1842 21.8084 38.66 21.8133 39.055 21.8494C39.477 21.888 39.9173 21.9695 40.347 22.1908C40.9749 22.5139 41.4861 23.0251 41.8092 23.653C42.0305 24.0827 42.112 24.523 42.1506 24.945C42.1867 25.34 42.1916 25.8158 42.1971 26.3495L42.2033 26.9488C42.2091 27.5052 42.2178 27.5775 42.2311 27.632C42.2503 27.7103 42.2813 27.7852 42.3231 27.8541C42.3523 27.9021 42.3972 27.9594 42.7866 28.3569L43.206 28.7851C43.5795 29.1664 43.9124 29.5062 44.1662 29.8111C44.4373 30.1368 44.691 30.5057 44.8384 30.9661C45.0539 31.6385 45.0539 32.3615 44.8384 33.0339C44.691 33.4943 44.4373 33.8632 44.1662 34.1889C43.9124 34.4938 43.5795 34.8336 43.206 35.2149L42.7866 35.6431C42.3972 36.0406 42.3523 36.0979 42.3231 36.1459C42.2813 36.2148 42.2503 36.2897 42.2311 36.368C42.2178 36.4225 42.2091 36.4948 42.2033 37.0512L42.1971 37.6505C42.1916 38.1842 42.1867 38.66 42.1506 39.055C42.112 39.477 42.0305 39.9173 41.8092 40.347C41.4861 40.9749 40.9749 41.4861 40.347 41.8092C39.9173 42.0305 39.477 42.112 39.055 42.1506C38.66 42.1867 38.1842 42.1916 37.6505 42.1971L37.0512 42.2033C36.4948 42.2091 36.4225 42.2178 36.368 42.2311C36.2897 42.2503 36.2148 42.2813 36.1459 42.3231C36.0979 42.3523 36.0406 42.3972 35.6431 42.7866L35.2149 43.206C34.8336 43.5795 34.4938 43.9124 34.1889 44.1662C33.8632 44.4373 33.4943 44.691 33.0339 44.8384C32.3615 45.0539 31.6385 45.0539 30.9661 44.8384C30.5057 44.691 30.1368 44.4373 29.8111 44.1662C29.5063 43.9124 29.1665 43.5796 28.7853 43.2062L28.3569 42.7866C27.9594 42.3972 27.9021 42.3523 27.8541 42.3231C27.7852 42.2813 27.7103 42.2503 27.632 42.2311C27.5775 42.2178 27.5052 42.2091 26.9488 42.2033L26.3495 42.1971C25.8158 42.1916 25.34 42.1867 24.945 42.1506C24.523 42.112 24.0827 42.0305 23.653 41.8092C23.0251 41.4861 22.5139 40.9749 22.1908 40.347C21.9695 39.9173 21.888 39.477 21.8494 39.055C21.8133 38.66 21.8084 38.1842 21.8029 37.6505L21.7967 37.0512C21.7909 36.4948 21.7822 36.4225 21.7689 36.368C21.7497 36.2897 21.7187 36.2148 21.6769 36.1459C21.6477 36.0979 21.6028 36.0406 21.2134 35.6431L20.7941 35.215C20.4205 34.8337 20.0876 34.4938 19.8338 34.1889C19.5627 33.8632 19.309 33.4943 19.1616 33.0339C18.9461 32.3615 18.9461 31.6385 19.1616 30.9661C19.309 30.5057 19.5627 30.1368 19.8338 29.8111C20.0876 29.5062 20.4205 29.1663 20.7941 28.785L21.2134 28.3569C21.6028 27.9594 21.6477 27.9021 21.6769 27.8541C21.7187 27.7852 21.7497 27.7103 21.7689 27.632C21.7822 27.5775 21.7909 27.5052 21.7967 26.9488L21.8029 26.3495C21.8084 25.8158 21.8133 25.34 21.8494 24.945C21.888 24.523 21.9695 24.0827 22.1908 23.653C22.5139 23.0251 23.0251 22.5139 23.653 22.1908C24.0827 21.9695 24.523 21.888 24.945 21.8494C25.34 21.8133 25.8158 21.8084 26.3495 21.8029L26.9488 21.7967C27.5052 21.7909 27.5775 21.7822 27.632 21.7689C27.7103 21.7497 27.7852 21.7187 27.8541 21.6769C27.9021 21.6477 27.9594 21.6028 28.3569 21.2134L28.785 20.7941C29.1663 20.4205 29.5062 20.0876 29.8111 19.8338C30.1368 19.5627 30.5057 19.309 30.9661 19.1616ZM32.0002 29.27C30.5095 29.27 29.2583 30.4753 29.2583 32C29.2583 33.5247 30.5095 34.73 32.0002 34.73C33.4909 34.73 34.7421 33.5247 34.7421 32C34.7421 30.4753 33.4909 29.27 32.0002 29.27Z" fill="white"/>
<defs>
<linearGradient id="paint0_linear_2004_1944" x1="32" y1="0" x2="32" y2="64" gradientUnits="userSpaceOnUse">
<stop stop-color="#28272A"/>
<stop offset="1" stop-color="#131217"/>
</linearGradient>
<linearGradient id="paint1_linear_2004_1944" x1="32" y1="0" x2="32" y2="64" gradientUnits="userSpaceOnUse">
<stop stop-color="white"/>
<stop offset="1" stop-color="#4F4F4F"/>
</linearGradient>
</defs>
</svg>
