<svg width="41" height="32" viewBox="0 0 41 32" fill="none" xmlns="http://www.w3.org/2000/svg">
<path d="M25.8857 5.86588C26.5198 6.57667 26.9678 7.45451 27.2178 8.47511C27.455 9.44387 27.508 10.5214 27.3755 11.6781C27.3265 12.106 27.2539 12.5905 27.1482 13.1031C27.9672 13.8962 29.0403 14.3998 30.4355 14.3997C34.3061 14.3994 35.6988 10.5239 36.0633 7.34046C36.5124 3.41862 34.6582 0.467041 30.4355 0.467041C27.1219 0.467041 25.2669 2.28535 24.8389 4.96366C25.2261 5.21993 25.5773 5.52013 25.8857 5.86588Z" fill="#31353B"/>
<path d="M40.906 23.6279C40.8639 22.3927 40.719 21.1516 40.5033 19.9354C40.2424 18.4623 39.9099 16.3024 38.6237 15.3422C37.8799 14.7873 36.9167 14.6051 36.0653 14.2705C35.6507 14.1076 35.2794 13.9458 34.931 13.7617C33.7549 15.0515 32.2213 15.7261 30.4355 15.7262C29.0459 15.7262 27.8098 15.3157 26.7753 14.5264C26.5371 15.2631 26.2183 16.005 25.792 16.6828C26.1664 16.9083 26.5713 17.0883 27.0633 17.2817C27.2811 17.3673 27.5202 17.4455 27.7734 17.5281C28.4578 17.7518 29.2334 18.0053 29.9298 18.5252C31.5853 19.761 31.9929 22.0766 32.2904 23.7675L32.3225 23.95C32.4764 24.817 32.5894 25.6689 32.6621 26.4965C33.9834 26.3611 35.2979 26.1298 36.5868 25.8576C37.6287 25.6377 38.6635 25.3693 39.6658 25.0078C40.4664 24.7189 40.9389 24.5847 40.906 23.6279Z" fill="#31353B"/>
<path d="M11.3792 14.3995C12.7743 14.3997 13.8473 13.8961 14.6665 13.1029C14.5607 12.5904 14.4882 12.1058 14.4391 11.6779C14.3067 10.5213 14.3597 9.44369 14.5969 8.47493C14.8467 7.4544 15.2948 6.57649 15.929 5.8657C16.2373 5.51989 16.5884 5.21969 16.9756 4.96341C16.5476 2.2851 14.6926 0.466797 11.379 0.466797C7.15639 0.466797 5.30207 3.41844 5.75115 7.34022C6.11586 10.5238 7.50861 14.3993 11.3792 14.3995Z" fill="#31353B"/>
<path d="M11.8849 18.5252C12.5814 18.0053 13.3571 17.7518 14.0414 17.5281C14.2947 17.4455 14.5336 17.3673 14.7515 17.2817C15.2435 17.0884 15.6486 16.9084 16.0228 16.6828C15.5967 16.0051 15.2777 15.2631 15.0396 14.5264C14.005 15.3157 12.7689 15.7262 11.3794 15.7262C9.59363 15.7262 8.0599 15.0515 6.88382 13.7617C6.53551 13.9458 6.16408 14.1075 5.74956 14.2705C4.89819 14.6051 3.93498 14.7873 3.19119 15.3422C1.90504 16.3024 1.57243 18.4622 1.31151 19.9354C1.09582 21.1515 0.950988 22.3926 0.908831 23.6279C0.87602 24.5848 1.34844 24.7189 2.14897 25.0078C3.15119 25.3693 4.18623 25.6376 5.22799 25.8576C6.51689 26.1299 7.83147 26.3612 9.15265 26.4965C9.22533 25.6689 9.33833 24.8172 9.49232 23.95L9.52435 23.7675C9.822 22.0766 10.2294 19.761 11.8849 18.5252Z" fill="#31353B"/>
<path d="M31.6493 24.0659L31.617 23.8825C31.3387 22.301 30.9575 20.1352 29.513 19.0569C28.9038 18.6022 28.2142 18.3769 27.5472 18.1589C27.2845 18.073 27.0366 17.9919 26.8003 17.8991C26.4559 17.7638 26.1456 17.6313 25.8549 17.4849C24.6337 19.1144 22.9412 19.9724 20.9279 19.9726C18.9152 19.9726 17.2229 19.1145 16.0017 17.4849C15.7109 17.6315 15.4006 17.7639 15.0561 17.8992C14.8202 17.9919 14.5721 18.073 14.3095 18.1589C13.6423 18.3768 12.9525 18.6023 12.3435 19.0569C10.8986 20.1353 10.5176 22.3017 10.2394 23.8834L10.2072 24.0661C9.97468 25.3789 9.83592 26.6525 9.79488 27.8514C9.74671 29.2578 10.6197 29.5714 11.3898 29.8481L11.4728 29.878C12.3989 30.2121 13.435 30.4984 14.6399 30.753C17.1005 31.2724 19.0973 31.5203 20.9235 31.5333H20.9282H20.9329C22.7594 31.5203 24.7561 31.2724 27.2162 30.753C28.4214 30.4985 29.4574 30.2122 30.3831 29.878L30.466 29.8482C31.2363 29.5716 32.1096 29.2581 32.0614 27.8513C32.0204 26.6493 31.8816 25.3758 31.6493 24.0659Z" fill="#31353B"/>
<path d="M15.3519 11.883C15.7164 15.0666 17.109 18.9424 20.9796 18.9422C24.8502 18.942 26.2429 15.0666 26.6074 11.883C27.0565 7.96128 25.202 5.00977 20.9796 5.00977C16.7578 5.00963 14.9021 7.96095 15.3519 11.883Z" fill="#31353B"/>
</svg>
